<svg width="20" height="12" viewBox="0 0 20 12" fill="none" xmlns="http://www.w3.org/2000/svg">
<path d="M19.13 2.81214L10.8488 0.134644C10.2922 -0.0450439 9.70813 -0.0450439 9.15156 0.134644L0.870313 2.81214C0.341875 2.98308 0 3.44933 0 3.99996C0 4.55058 0.341875 5.01683 0.87 5.18777L1.79844 5.48777C1.69531 5.68089 1.61906 5.88871 1.56938 6.10652C1.23531 6.26839 1 6.60371 1 6.99996C1 7.39777 1.23656 7.73496 1.57281 7.89589L1.00875 11.3915C0.958437 11.7037 1.13094 12 1.36312 12H2.63656C2.86875 12 3.04156 11.7037 2.99094 11.3915L2.42719 7.89589C2.76344 7.73496 3 7.39777 3 6.99996C3 6.66871 2.82844 6.38933 2.58031 6.20714C2.62687 6.06152 2.69906 5.93027 2.78562 5.80683L4.45656 6.34714L4 9.99996C4 11.1046 6.68625 12 10 12C13.3138 12 16 11.1046 16 9.99996L15.5434 6.34714L19.13 5.18746C19.6581 5.01683 20 4.55058 20 3.99996C20 3.44933 19.6581 2.98308 19.13 2.81214ZM14.9838 9.93308C14.6475 10.2871 12.9388 11 10 11C7.06125 11 5.3525 10.2871 5.01625 9.93308L5.42531 6.66027L9.15156 7.86496C9.23281 7.89121 9.95531 8.15339 10.8488 7.86496L14.575 6.66027L14.9838 9.93308ZM18.8213 4.23683L10.54 6.91433C10.1866 7.02871 9.81344 7.02871 9.46 6.91433L3.97031 5.13933L10.0919 3.99121C10.3634 3.94058 10.5422 3.67933 10.4913 3.40777C10.4406 3.13589 10.1737 2.95808 9.90812 3.00871L3.54 4.20246C3.1525 4.27496 2.80531 4.44152 2.50625 4.66589L1.17844 4.23652C0.933125 4.15683 0.945312 3.83839 1.17844 3.76308L9.45969 1.08558C9.93156 0.933081 10.3297 1.01777 10.5397 1.08558L18.8209 3.76308C19.0519 3.83777 19.0681 4.15683 18.8213 4.23683Z" fill="black"/>
</svg>
